<mxfile host="app.diagrams.net" agent="Mozilla/5.0 (Windows NT 10.0; Win64; x64) AppleWebKit/537.36 (KHTML, like Gecko) Chrome/139.0.0.0 Safari/537.36" scale="1" border="0" version="28.0.9">
  <diagram name="Page-1" id="P8a77c6824254aKRgIBY">
    <mxGraphModel dx="2587" dy="2050" grid="1" gridSize="10" guides="1" tooltips="1" connect="1" arrows="1" fold="1" page="1" pageScale="1" pageWidth="850" pageHeight="1100" background="none" math="0" shadow="0">
      <root>
        <mxCell id="0" />
        <mxCell id="1" parent="0" />
        <mxCell id="G9TJTRlNsRxDC5rhHHOo-6" value="&lt;h1&gt;&lt;font face=&quot;Helvetica&quot; style=&quot;font-size: 166px;&quot;&gt;&lt;span style=&quot;line-height: 100%;&quot;&gt;&lt;b&gt;Colum.Crowe&lt;/b&gt;&lt;/span&gt;&lt;/font&gt;&lt;/h1&gt;" style="text;strokeColor=none;align=center;fillColor=none;html=1;verticalAlign=middle;rounded=0;labelPosition=center;verticalLabelPosition=middle;labelBackgroundColor=none;spacing=0;" vertex="1" parent="1">
          <mxGeometry width="1200" height="211" as="geometry" />
        </mxCell>
      </root>
    </mxGraphModel>
  </diagram>
</mxfile>
